#define desk_width 10
#define desk_height 10
static unsigned char desk_bits[] = {
   0x00, 0x00, 0xb6, 0x01, 0xb6, 0x01, 0x00, 0x00, 0xb6, 0x01, 0xb6, 0x01,
   0x00, 0x00, 0xb6, 0x01, 0xb6, 0x01, 0x00, 0x00 };
