#define max_width 10
#define max_height 10
static unsigned char max_bits[] = {
   0xe0, 0x03, 0xc0, 0x03, 0x80, 0x03, 0x40, 0x03, 0x20, 0x02, 0x11, 0x00,
   0x0b, 0x00, 0x07, 0x00, 0x0f, 0x00, 0x1f, 0x00 };
