#define max_toggled_width 10
#define max_toggled_height 10
static unsigned char max_toggled_bits[] = {
   0x20, 0x02, 0x60, 0x01, 0xe0, 0x00, 0xe0, 0x01, 0xe0, 0x03, 0x1f, 0x00,
   0x1e, 0x00, 0x1c, 0x00, 0x1a, 0x00, 0x11, 0x00 };
