#define shade_width 10
#define shade_height 10
static unsigned char shade_bits[] = {
   0xfe, 0x02, 0x7f, 0x02, 0x00, 0x02, 0xfe, 0x02, 0x7f, 0x02, 0x00, 0x02,
   0xfe, 0x02, 0x7f, 0x02, 0x00, 0x02, 0x00, 0x02 };
